<?xml version="1.0" standalone="no"?>
<!DOCTYPE svg PUBLIC "-//W3C//DTD SVG 20010904//EN"
 "http://www.w3.org/TR/2001/REC-SVG-20010904/DTD/svg10.dtd">
<svg version="1.0" xmlns="http://www.w3.org/2000/svg"
 width="195.000000pt" height="195.000000pt" viewBox="0 0 195.000000 195.000000"
 preserveAspectRatio="xMidYMid meet">
<metadata>
Created by potrace 1.14, written by Peter Selinger 2001-2017
</metadata>
<g transform="translate(0.000000,195.000000) scale(0.100000,-0.100000)"
fill="#000000" stroke="none">
<path d="M875 1438 c-131 -16 -277 -71 -399 -152 -50 -33 -158 -133 -199 -185
-67 -84 -136 -221 -163 -324 -23 -88 -24 -94 -30 -174 l-5 -73 910 0 c722 0
911 3 912 13 3 31 -3 89 -17 164 -52 282 -250 536 -513 655 -55 26 -134 53
-176 63 -89 19 -219 24 -320 13z m-93 -343 c89 -20 165 -132 155 -230 -20
-194 -256 -268 -385 -121 -109 124 -41 318 125 355 37 8 51 7 105 -4z m568 -7
c112 -48 166 -193 111 -298 -26 -50 -51 -75 -104 -103 -39 -20 -56 -22 -269
-23 -126 -1 -228 0 -228 2 0 2 16 18 35 37 101 98 102 255 1 361 -20 22 -36
39 -36 40 0 1 102 1 227 0 179 -1 236 -4 263 -16z"/>
<path d="M704 1030 c-104 -15 -163 -121 -115 -210 54 -102 193 -108 253 -11
62 100 -23 236 -138 221z m61 -46 c50 -23 68 -57 62 -113 -4 -36 -12 -52 -38
-73 -45 -38 -111 -33 -151 12 -16 17 -29 39 -29 50 -1 11 -2 26 -3 33 -4 21
22 64 51 86 34 25 64 26 108 5z"/>
</g>
</svg>
